<?xml version="1.0" encoding="UTF-8" standalone="no"?><!-- Generator: Gravit.io --><svg xmlns="http://www.w3.org/2000/svg" xmlns:xlink="http://www.w3.org/1999/xlink" style="isolation:isolate" viewBox="998.328 950.143 93.192 127.607" width="93.192pt" height="127.607pt"><defs><clipPath id="_clipPath_2eHX7k0goiwASJv5Tau3wuEJJknjozeT"><rect x="998.328" y="950.143" width="93.192" height="127.607"/></clipPath></defs><g clip-path="url(#_clipPath_2eHX7k0goiwASJv5Tau3wuEJJknjozeT)"><path d=" M 1026.576 1053.895 L 1008.096 1053.895 L 1008.096 1012.315 L 998.328 1012.315 L 998.328 995.947 L 1008.096 995.947 L 1008.096 975.883 L 1008.096 975.883 Q 1008.096 964.531 1014.63 957.337 L 1014.63 957.337 L 1014.63 957.337 Q 1021.164 950.143 1033.572 950.143 L 1033.572 950.143 L 1033.572 950.143 Q 1037.268 950.143 1041.822 951.265 L 1041.822 951.265 L 1041.822 951.265 Q 1046.376 952.387 1049.808 954.895 L 1049.808 954.895 L 1042.02 968.227 L 1042.02 968.227 Q 1040.7 966.511 1038.918 965.917 L 1038.918 965.917 L 1038.918 965.917 Q 1037.136 965.323 1035.552 965.323 L 1035.552 965.323 L 1035.552 965.323 Q 1031.592 965.323 1029.084 967.963 L 1029.084 967.963 L 1029.084 967.963 Q 1026.576 970.603 1026.576 976.411 L 1026.576 976.411 L 1026.576 995.947 L 1044 995.947 L 1044 1012.315 L 1026.576 1012.315 L 1026.576 1053.895 Z " fill="rgb(0,0,0)"/><path d=" M 1051.524 996.211 L 1068.156 996.211 L 1069.872 1012.051 L 1069.476 1009.675 L 1069.476 1009.675 Q 1071.984 1004.527 1076.34 1000.897 L 1076.34 1000.897 L 1076.34 1000.897 Q 1080.696 997.267 1084.986 995.287 L 1084.986 995.287 L 1084.986 995.287 Q 1089.276 993.307 1091.52 993.307 L 1091.52 993.307 L 1090.596 1011.787 L 1090.596 1011.787 Q 1084.128 1010.995 1079.508 1013.899 L 1079.508 1013.899 L 1079.508 1013.899 Q 1074.888 1016.803 1072.38 1021.555 L 1072.38 1021.555 L 1072.38 1021.555 Q 1069.872 1026.307 1069.872 1031.323 L 1069.872 1031.323 L 1069.872 1053.895 L 1051.524 1053.895 L 1051.524 996.211 Z " fill="rgb(0,0,0)"/><path d="M 1053.379 1068 L 1069.201 1068 C 1070.227 1068 1071.06 1068.833 1071.06 1069.858 L 1071.06 1075.892 C 1071.06 1076.917 1070.227 1077.75 1069.201 1077.75 L 1053.379 1077.75 C 1052.353 1077.75 1051.52 1076.917 1051.52 1075.892 L 1051.52 1069.858 C 1051.52 1068.833 1052.353 1068 1053.379 1068 Z" style="stroke:none;fill:#000000;stroke-miterlimit:10;"/></g></svg>