<?xml version="1.0" encoding="UTF-8" standalone="no"?><!-- Generator: Gravit.io --><svg xmlns="http://www.w3.org/2000/svg" xmlns:xlink="http://www.w3.org/1999/xlink" style="isolation:isolate" viewBox="998.328 949.747 553.344 128.003" width="553.344pt" height="128.003pt"><defs><clipPath id="_clipPath_EOxYoDnOIdeb3pyUR5uwJB4WikUL8VvT"><rect x="998.328" y="949.747" width="553.344" height="128.003"/></clipPath></defs><g clip-path="url(#_clipPath_EOxYoDnOIdeb3pyUR5uwJB4WikUL8VvT)"><path d=" M 1026.576 1053.895 L 1008.096 1053.895 L 1008.096 1012.315 L 998.328 1012.315 L 998.328 995.947 L 1008.096 995.947 L 1008.096 975.883 L 1008.096 975.883 Q 1008.096 964.531 1014.63 957.337 L 1014.63 957.337 L 1014.63 957.337 Q 1021.164 950.143 1033.572 950.143 L 1033.572 950.143 L 1033.572 950.143 Q 1037.268 950.143 1041.822 951.265 L 1041.822 951.265 L 1041.822 951.265 Q 1046.376 952.387 1049.808 954.895 L 1049.808 954.895 L 1042.02 968.227 L 1042.02 968.227 Q 1040.7 966.511 1038.918 965.917 L 1038.918 965.917 L 1038.918 965.917 Q 1037.136 965.323 1035.552 965.323 L 1035.552 965.323 L 1035.552 965.323 Q 1031.592 965.323 1029.084 967.963 L 1029.084 967.963 L 1029.084 967.963 Q 1026.576 970.603 1026.576 976.411 L 1026.576 976.411 L 1026.576 995.947 L 1044 995.947 L 1044 1012.315 L 1026.576 1012.315 L 1026.576 1053.895 Z " fill="rgb(255,255,255)"/><path d=" M 1080.3 1055.479 L 1080.3 1055.479 L 1080.3 1055.479 Q 1072.248 1055.479 1065.714 1052.245 L 1065.714 1052.245 L 1065.714 1052.245 Q 1059.18 1049.011 1055.352 1042.279 L 1055.352 1042.279 L 1055.352 1042.279 Q 1051.524 1035.547 1051.524 1025.119 L 1051.524 1025.119 L 1051.524 1025.119 Q 1051.524 1015.351 1055.484 1008.223 L 1055.484 1008.223 L 1055.484 1008.223 Q 1059.444 1001.095 1065.912 997.201 L 1065.912 997.201 L 1065.912 997.201 Q 1072.38 993.307 1079.64 993.307 L 1079.64 993.307 L 1079.64 993.307 Q 1088.22 993.307 1092.642 996.145 L 1092.642 996.145 L 1092.642 996.145 Q 1097.064 998.983 1099.968 1002.415 L 1099.968 1002.415 L 1099.176 1004.659 L 1100.892 996.211 L 1118.052 996.211 L 1118.052 1053.895 L 1099.572 1053.895 L 1101.024 1045.315 L 1101.024 1045.315 Q 1100.76 1045.315 1099.44 1046.833 L 1099.44 1046.833 L 1099.44 1046.833 Q 1098.12 1048.351 1095.546 1050.397 L 1095.546 1050.397 L 1095.546 1050.397 Q 1092.972 1052.443 1089.21 1053.961 L 1089.21 1053.961 L 1089.21 1053.961 Q 1085.448 1055.479 1080.3 1055.479 Z  M 1085.58 1040.431 L 1085.58 1040.431 L 1085.58 1040.431 Q 1090.596 1040.431 1094.028 1038.253 L 1094.028 1038.253 L 1094.028 1038.253 Q 1097.46 1036.075 1099.572 1031.719 L 1099.572 1031.719 L 1099.572 1017.595 L 1099.572 1017.595 Q 1097.988 1013.371 1094.094 1010.863 L 1094.094 1010.863 L 1094.094 1010.863 Q 1090.2 1008.355 1084.92 1008.355 L 1084.92 1008.355 L 1084.92 1008.355 Q 1080.96 1008.355 1077.594 1010.401 L 1077.594 1010.401 L 1077.594 1010.401 Q 1074.228 1012.447 1072.248 1016.011 L 1072.248 1016.011 L 1072.248 1016.011 Q 1070.268 1019.575 1070.268 1024.195 L 1070.268 1024.195 L 1070.268 1024.195 Q 1070.268 1028.815 1072.38 1032.511 L 1072.38 1032.511 L 1072.38 1032.511 Q 1074.492 1036.207 1077.99 1038.319 L 1077.99 1038.319 L 1077.99 1038.319 Q 1081.488 1040.431 1085.58 1040.431 Z " fill-rule="evenodd" fill="rgb(255,255,255)"/><path d=" M 1174.944 1055.479 L 1174.944 1055.479 L 1174.944 1055.479 Q 1167.684 1055.479 1162.734 1053.037 L 1162.734 1053.037 L 1162.734 1053.037 Q 1157.784 1050.595 1154.088 1046.635 L 1154.088 1046.635 L 1155.54 1053.895 L 1137.06 1053.895 L 1137.06 949.747 L 1155.408 949.747 L 1155.408 1006.111 L 1155.408 1000.171 L 1155.408 1000.171 Q 1158.84 997.267 1164.516 995.287 L 1164.516 995.287 L 1164.516 995.287 Q 1170.192 993.307 1177.452 993.307 L 1177.452 993.307 L 1177.452 993.307 Q 1184.976 993.307 1191.18 996.871 L 1191.18 996.871 L 1191.18 996.871 Q 1197.384 1000.435 1201.146 1007.233 L 1201.146 1007.233 L 1201.146 1007.233 Q 1204.908 1014.031 1204.908 1023.799 L 1204.908 1023.799 L 1204.908 1023.799 Q 1204.908 1033.567 1200.75 1040.695 L 1200.75 1040.695 L 1200.75 1040.695 Q 1196.592 1047.823 1189.728 1051.651 L 1189.728 1051.651 L 1189.728 1051.651 Q 1182.864 1055.479 1174.944 1055.479 Z  M 1170.852 1039.903 L 1170.852 1039.903 L 1170.852 1039.903 Q 1174.944 1039.903 1178.442 1037.791 L 1178.442 1037.791 L 1178.442 1037.791 Q 1181.94 1035.679 1184.052 1031.983 L 1184.052 1031.983 L 1184.052 1031.983 Q 1186.164 1028.287 1186.164 1023.667 L 1186.164 1023.667 L 1186.164 1023.667 Q 1186.164 1019.047 1184.052 1015.483 L 1184.052 1015.483 L 1184.052 1015.483 Q 1181.94 1011.919 1178.442 1009.873 L 1178.442 1009.873 L 1178.442 1009.873 Q 1174.944 1007.827 1170.852 1007.827 L 1170.852 1007.827 L 1170.852 1007.827 Q 1165.44 1007.827 1161.348 1010.335 L 1161.348 1010.335 L 1161.348 1010.335 Q 1157.256 1012.843 1155.54 1017.067 L 1155.54 1017.067 L 1155.54 1031.191 L 1155.54 1031.191 Q 1157.916 1035.547 1161.678 1037.725 L 1161.678 1037.725 L 1161.678 1037.725 Q 1165.44 1039.903 1170.852 1039.903 Z " fill-rule="evenodd" fill="rgb(255,255,255)"/><path d=" M 1219.428 996.211 L 1236.06 996.211 L 1237.776 1012.051 L 1237.38 1009.675 L 1237.38 1009.675 Q 1239.888 1004.527 1244.244 1000.897 L 1244.244 1000.897 L 1244.244 1000.897 Q 1248.6 997.267 1252.89 995.287 L 1252.89 995.287 L 1252.89 995.287 Q 1257.18 993.307 1259.424 993.307 L 1259.424 993.307 L 1258.5 1011.787 L 1258.5 1011.787 Q 1252.032 1010.995 1247.412 1013.899 L 1247.412 1013.899 L 1247.412 1013.899 Q 1242.792 1016.803 1240.284 1021.555 L 1240.284 1021.555 L 1240.284 1021.555 Q 1237.776 1026.307 1237.776 1031.323 L 1237.776 1031.323 L 1237.776 1053.895 L 1219.428 1053.895 L 1219.428 996.211 Z " fill="rgb(255,255,255)"/><path d=" M 1310.64 1037.131 L 1319.88 1048.747 L 1319.88 1048.747 Q 1316.052 1051.783 1310.31 1053.631 L 1310.31 1053.631 L 1310.31 1053.631 Q 1304.568 1055.479 1299.024 1055.479 L 1299.024 1055.479 L 1299.024 1055.479 Q 1289.124 1055.479 1281.798 1051.849 L 1281.798 1051.849 L 1281.798 1051.849 Q 1274.472 1048.219 1270.446 1041.421 L 1270.446 1041.421 L 1270.446 1041.421 Q 1266.42 1034.623 1266.42 1024.987 L 1266.42 1024.987 L 1266.42 1024.987 Q 1266.42 1015.351 1270.776 1008.553 L 1270.776 1008.553 L 1270.776 1008.553 Q 1275.132 1001.755 1282.194 998.191 L 1282.194 998.191 L 1282.194 998.191 Q 1289.256 994.627 1297.044 994.627 L 1297.044 994.627 L 1297.044 994.627 Q 1304.832 994.627 1310.574 996.739 L 1310.574 996.739 L 1310.574 996.739 Q 1316.316 998.851 1320.408 1002.283 L 1320.408 1002.283 L 1311.432 1014.163 L 1311.432 1014.163 Q 1309.584 1012.711 1306.35 1011.193 L 1306.35 1011.193 L 1306.35 1011.193 Q 1303.116 1009.675 1298.76 1009.675 L 1298.76 1009.675 L 1298.76 1009.675 Q 1294.932 1009.675 1291.764 1011.655 L 1291.764 1011.655 L 1291.764 1011.655 Q 1288.596 1013.635 1286.748 1017.067 L 1286.748 1017.067 L 1286.748 1017.067 Q 1284.9 1020.499 1284.9 1024.987 L 1284.9 1024.987 L 1284.9 1024.987 Q 1284.9 1029.211 1286.88 1032.775 L 1286.88 1032.775 L 1286.88 1032.775 Q 1288.86 1036.339 1292.358 1038.385 L 1292.358 1038.385 L 1292.358 1038.385 Q 1295.856 1040.431 1300.608 1040.431 L 1300.608 1040.431 L 1300.608 1040.431 Q 1303.644 1040.431 1306.218 1039.573 L 1306.218 1039.573 L 1306.218 1039.573 Q 1308.792 1038.715 1310.64 1037.131 L 1310.64 1037.131 Z " fill="rgb(255,255,255)"/><path d=" M 1339.548 995.947 L 1339.548 970.867 L 1358.028 970.867 L 1358.028 995.947 L 1372.02 995.947 L 1372.02 1010.335 L 1358.028 1010.335 L 1358.028 1053.895 L 1339.548 1053.895 L 1339.548 1010.335 L 1330.572 1010.335 L 1330.572 995.947 L 1339.548 995.947 Z " fill="rgb(255,255,255)"/><path d=" M 1386.144 1053.895 L 1386.144 996.211 L 1404.624 996.211 L 1404.624 1053.895 L 1386.144 1053.895 Z " fill="rgb(255,255,255)"/><path d=" M 1385.748 975.751 L 1385.748 975.751 L 1385.748 975.751 Q 1385.748 971.659 1388.982 969.019 L 1388.982 969.019 L 1388.982 969.019 Q 1392.216 966.379 1395.912 966.379 L 1395.912 966.379 L 1395.912 966.379 Q 1399.608 966.379 1402.71 969.019 L 1402.71 969.019 L 1402.71 969.019 Q 1405.812 971.659 1405.812 975.751 L 1405.812 975.751 L 1405.812 975.751 Q 1405.812 979.843 1402.71 982.417 L 1402.71 982.417 L 1402.71 982.417 Q 1399.608 984.991 1395.912 984.991 L 1395.912 984.991 L 1395.912 984.991 Q 1392.216 984.991 1388.982 982.417 L 1388.982 982.417 L 1388.982 982.417 Q 1385.748 979.843 1385.748 975.751 Z " fill="rgb(255,255,255)"/><path d=" M 1450.56 1055.083 L 1450.032 1055.083 L 1415.448 996.211 L 1437.36 996.211 L 1457.028 1036.075 L 1445.676 1035.679 L 1462.704 996.211 L 1483.296 996.211 L 1450.56 1055.083 Z " fill="rgb(255,255,255)"/><path d=" M 1520.52 1055.479 L 1520.52 1055.479 L 1520.52 1055.479 Q 1509.96 1055.479 1502.634 1051.519 L 1502.634 1051.519 L 1502.634 1051.519 Q 1495.308 1047.559 1491.48 1040.563 L 1491.48 1040.563 L 1491.48 1040.563 Q 1487.652 1033.567 1487.652 1024.459 L 1487.652 1024.459 L 1487.652 1024.459 Q 1487.652 1015.747 1492.14 1008.751 L 1492.14 1008.751 L 1492.14 1008.751 Q 1496.628 1001.755 1504.152 997.597 L 1504.152 997.597 L 1504.152 997.597 Q 1511.676 993.439 1520.916 993.439 L 1520.916 993.439 L 1520.916 993.439 Q 1533.324 993.439 1541.31 1000.633 L 1541.31 1000.633 L 1541.31 1000.633 Q 1549.296 1007.827 1551.672 1021.423 L 1551.672 1021.423 L 1506.792 1035.679 L 1502.7 1025.647 L 1535.172 1014.691 L 1531.344 1016.407 L 1531.344 1016.407 Q 1530.288 1012.975 1527.582 1010.401 L 1527.582 1010.401 L 1527.582 1010.401 Q 1524.876 1007.827 1519.464 1007.827 L 1519.464 1007.827 L 1519.464 1007.827 Q 1513.26 1007.827 1509.564 1012.051 L 1509.564 1012.051 L 1509.564 1012.051 Q 1505.868 1016.275 1505.868 1023.403 L 1505.868 1023.403 L 1505.868 1023.403 Q 1505.868 1031.455 1510.224 1035.613 L 1510.224 1035.613 L 1510.224 1035.613 Q 1514.58 1039.771 1520.916 1039.771 L 1520.916 1039.771 L 1520.916 1039.771 Q 1523.952 1039.771 1526.79 1038.715 L 1526.79 1038.715 L 1526.79 1038.715 Q 1529.628 1037.659 1532.4 1035.943 L 1532.4 1035.943 L 1540.584 1049.671 L 1540.584 1049.671 Q 1535.964 1052.311 1530.618 1053.895 L 1530.618 1053.895 L 1530.618 1053.895 Q 1525.272 1055.479 1520.52 1055.479 Z " fill="rgb(255,255,255)"/><path d="M 1221.288 1068 L 1237.102 1068 C 1238.128 1068 1238.96 1068.833 1238.96 1069.858 L 1238.96 1075.892 C 1238.96 1076.917 1238.128 1077.75 1237.102 1077.75 L 1221.288 1077.75 C 1220.262 1077.75 1219.43 1076.917 1219.43 1075.892 L 1219.43 1069.858 C 1219.43 1068.833 1220.262 1068 1221.288 1068 Z" style="stroke:none;fill:#FFFFFF;stroke-miterlimit:10;"/></g></svg>